<mxfile host="65bd71144e">
    <diagram id="TzO9_d-Kj98EIlD6F85Y" name="Page-1">
        <mxGraphModel dx="906" dy="622" grid="1" gridSize="10" guides="1" tooltips="1" connect="1" arrows="1" fold="1" page="0" pageScale="1" pageWidth="850" pageHeight="1100" math="0" shadow="0">
            <root>
                <mxCell id="0"/>
                <mxCell id="1" parent="0"/>
                <mxCell id="2" value="Trailers" style="rounded=0;whiteSpace=wrap;html=1;" vertex="1" parent="1">
                    <mxGeometry x="160" y="100" width="80" height="40" as="geometry"/>
                </mxCell>
                <mxCell id="3" value="Format" style="rounded=0;whiteSpace=wrap;html=1;" vertex="1" parent="1">
                    <mxGeometry x="160" y="460" width="80" height="40" as="geometry"/>
                </mxCell>
                <mxCell id="4" value="Genres" style="rounded=0;whiteSpace=wrap;html=1;" vertex="1" parent="1">
                    <mxGeometry x="160" y="280" width="80" height="40" as="geometry"/>
                </mxCell>
                <mxCell id="5" value="Actors" style="rounded=0;whiteSpace=wrap;html=1;" vertex="1" parent="1">
                    <mxGeometry x="420" y="100" width="80" height="40" as="geometry"/>
                </mxCell>
                <mxCell id="6" value="Directors" style="rounded=0;whiteSpace=wrap;html=1;" vertex="1" parent="1">
                    <mxGeometry x="690" y="100" width="80" height="40" as="geometry"/>
                </mxCell>
                <mxCell id="7" value="Ratings" style="rounded=0;whiteSpace=wrap;html=1;" vertex="1" parent="1">
                    <mxGeometry x="690" y="280" width="80" height="40" as="geometry"/>
                </mxCell>
                <mxCell id="8" value="Movies" style="rounded=0;whiteSpace=wrap;html=1;" vertex="1" parent="1">
                    <mxGeometry x="420" y="280" width="80" height="40" as="geometry"/>
                </mxCell>
                <mxCell id="10" value="Awards" style="rounded=0;whiteSpace=wrap;html=1;" vertex="1" parent="1">
                    <mxGeometry x="420" y="460" width="80" height="40" as="geometry"/>
                </mxCell>
                <mxCell id="11" value="Users" style="rounded=0;whiteSpace=wrap;html=1;" vertex="1" parent="1">
                    <mxGeometry x="690" y="460" width="80" height="40" as="geometry"/>
                </mxCell>
            </root>
        </mxGraphModel>
    </diagram>
</mxfile>